<svg viewBox="0 0 24 24" fill="none" xmlns="http://www.w3.org/2000/svg">
  <path d="M12 22V12" stroke="#56d364" stroke-width="2" stroke-linecap="round"/>
  <path d="M12 12C12 12 8 10 8 6C8 4 10 2 12 2C14 2 16 4 16 6C16 10 12 12 12 12Z" fill="#3fb950"/>
  <path d="M8 14C8 14 10 12 12 12" stroke="#3fb950" stroke-width="2" stroke-linecap="round"/>
  <path d="M16 14C16 14 14 12 12 12" stroke="#3fb950" stroke-width="2" stroke-linecap="round"/>
  <path d="M6 18C6 18 9 15 12 15" stroke="#3fb950" stroke-width="1.5" stroke-linecap="round"/>
  <path d="M18 18C18 18 15 15 12 15" stroke="#3fb950" stroke-width="1.5" stroke-linecap="round"/>
</svg>
